# xmcd CD database file
#
# Track frame offsets:
#	150
#	18185
#	38982
#	65070
#	101117
#	131787
#	177952
#	211072
#	244380
#	272777
#
# Disc length: 4023 seconds
#
# Revision: 0
# Processed by: cddbd v1.5.2PL0 Copyright (c) Steve Scherf et al.
# Submitted via: CDex 1.70beta2
#
DISCID=940fb50a
DTITLE=Bronwin - Bhavana
DYEAR=2007
DGENRE=New Age
TTITLE0=Invocation
TTITLE1=Ganesh
TTITLE2=Sri Saraswati
TTITLE3=Hanuman Jai
TTITLE4=Mangala Murati
TTITLE5=Hanuman Chaleesa
TTITLE6=Lakshmi Ma Durga
TTITLE7=Ananda Ma
TTITLE8=Om Namo Bhagavate
TTITLE9=Ram Ram Sita Ram
EXTD=YEAR: 2007
EXTT0=
EXTT1=
EXTT2=
EXTT3=
EXTT4=
EXTT5=
EXTT6=
EXTT7=
EXTT8=
EXTT9=
PLAYORDER=
